<svg width="95" height="28" viewBox="0 0 95 28" fill="none" xmlns="http://www.w3.org/2000/svg">
<path d="M7.875 4.375H9.625V9.625H4.375V7.875C4.375 5.94125 5.94125 4.375 7.875 4.375Z" fill="#000"/>
<path opacity="0.85" d="M18.375 4.375H11.375V9.625H18.375V4.375Z" fill="#000"/>
<path opacity="0.7" d="M17.5 11.375H11.375V16.625H15.5C16.6046 16.625 17.5 15.7296 17.5 14.625V11.375Z" fill="#000"/>
<path opacity="0.2" d="M23.625 11.375H19.25V14.625C19.25 15.7296 20.1454 16.625 21.25 16.625H23.625V11.375Z" fill="#000"/>
<path opacity="0.1" d="M18.375 18.375H23.625V20.125C23.625 22.0588 22.0588 23.625 20.125 23.625H18.375V18.375Z" fill="#000"/>
<path opacity="0.2" d="M14.625 18.375H11.375V23.625H16.625V20.375C16.625 19.2704 15.7296 18.375 14.625 18.375Z" fill="#000"/>
<path opacity="0.6" d="M20.125 4.375C22.0588 4.375 23.625 5.94125 23.625 7.875V9.625H20.125V4.375Z" fill="#000"/>
<path opacity="0.85" d="M9.625 11.375H4.375V16.625H9.625V11.375Z" fill="#000"/>
<path opacity="0.6" d="M4.375 18.375H9.625V23.625H7.875C5.94125 23.625 4.375 22.0588 4.375 20.125V18.375Z" fill="#000"/>

<g id="svgGroup" transform="translate(28,6.5)" stroke-linecap="round" fill-rule="evenodd" font-size="9pt" stroke="#ccc" stroke-width="0.25mm" fill="#ccc" style="stroke:#000;stroke-width:0.25mm;fill:#ccc"><path d="M 34.832 7.632 L 28.864 7.632 L 28.864 7.04 L 34.832 7.04 L 34.56 7.232 Q 34.56 6.383 34.342 5.746 A 3.165 3.165 0 0 0 34.272 5.56 A 2.513 2.513 0 0 0 33.89 4.915 A 2.156 2.156 0 0 0 33.416 4.488 A 2.186 2.186 0 0 0 32.666 4.179 Q 32.358 4.112 32 4.112 A 3.257 3.257 0 0 0 31.242 4.196 A 2.459 2.459 0 0 0 30.424 4.552 Q 29.776 4.992 29.448 5.744 Q 29.12 6.496 29.12 7.456 L 29.12 7.536 A 5.186 5.186 0 0 0 29.205 8.508 Q 29.38 9.422 29.912 10.008 A 2.587 2.587 0 0 0 31.338 10.803 A 3.852 3.852 0 0 0 32.128 10.88 A 4.323 4.323 0 0 0 33.002 10.794 A 3.808 3.808 0 0 0 33.328 10.712 A 2.988 2.988 0 0 0 33.987 10.419 A 3.916 3.916 0 0 0 34.432 10.112 A 0.496 0.496 0 0 1 34.523 10.049 A 0.35 0.35 0 0 1 34.664 10.008 Q 34.735 10.003 34.794 10.021 A 0.303 0.303 0 0 1 34.872 10.056 A 0.351 0.351 0 0 1 34.96 10.134 A 0.318 0.318 0 0 1 35 10.2 Q 35.033 10.273 35.017 10.363 A 0.396 0.396 0 0 1 35.008 10.4 A 0.32 0.32 0 0 1 34.954 10.505 Q 34.927 10.542 34.887 10.577 A 0.657 0.657 0 0 1 34.848 10.608 Q 34.352 11.024 33.632 11.264 Q 32.912 11.504 32.16 11.504 A 4.655 4.655 0 0 1 31.213 11.412 A 3.472 3.472 0 0 1 30.176 11.024 Q 29.344 10.544 28.888 9.656 A 3.999 3.999 0 0 1 28.519 8.548 A 5.579 5.579 0 0 1 28.432 7.536 A 5.472 5.472 0 0 1 28.531 6.473 A 4.103 4.103 0 0 1 28.888 5.416 Q 29.344 4.512 30.152 4.008 A 3.336 3.336 0 0 1 31.629 3.522 A 4.154 4.154 0 0 1 32.016 3.504 Q 32.768 3.504 33.352 3.76 Q 33.936 4.016 34.344 4.496 A 3.101 3.101 0 0 1 34.813 5.252 A 3.878 3.878 0 0 1 34.968 5.664 A 4.595 4.595 0 0 1 35.143 6.494 A 6.061 6.061 0 0 1 35.184 7.216 A 0.786 0.786 0 0 1 35.176 7.33 Q 35.158 7.455 35.096 7.528 A 0.28 0.28 0 0 1 34.952 7.617 Q 34.905 7.63 34.849 7.632 A 0.575 0.575 0 0 1 34.832 7.632 Z M 65.616 7.632 L 59.648 7.632 L 59.648 7.04 L 65.616 7.04 L 65.344 7.232 Q 65.344 6.383 65.126 5.746 A 3.165 3.165 0 0 0 65.056 5.56 A 2.513 2.513 0 0 0 64.674 4.915 A 2.156 2.156 0 0 0 64.2 4.488 A 2.186 2.186 0 0 0 63.45 4.179 Q 63.142 4.112 62.784 4.112 A 3.257 3.257 0 0 0 62.026 4.196 A 2.459 2.459 0 0 0 61.208 4.552 Q 60.56 4.992 60.232 5.744 Q 59.904 6.496 59.904 7.456 L 59.904 7.536 A 5.186 5.186 0 0 0 59.989 8.508 Q 60.164 9.422 60.696 10.008 A 2.587 2.587 0 0 0 62.122 10.803 A 3.852 3.852 0 0 0 62.912 10.88 A 4.323 4.323 0 0 0 63.786 10.794 A 3.808 3.808 0 0 0 64.112 10.712 A 2.988 2.988 0 0 0 64.771 10.419 A 3.916 3.916 0 0 0 65.216 10.112 A 0.496 0.496 0 0 1 65.307 10.049 A 0.35 0.35 0 0 1 65.448 10.008 Q 65.519 10.003 65.578 10.021 A 0.303 0.303 0 0 1 65.656 10.056 A 0.351 0.351 0 0 1 65.744 10.134 A 0.318 0.318 0 0 1 65.784 10.2 Q 65.817 10.273 65.801 10.363 A 0.396 0.396 0 0 1 65.792 10.4 A 0.32 0.32 0 0 1 65.738 10.505 Q 65.711 10.542 65.671 10.577 A 0.657 0.657 0 0 1 65.632 10.608 Q 65.136 11.024 64.416 11.264 Q 63.696 11.504 62.944 11.504 A 4.655 4.655 0 0 1 61.997 11.412 A 3.472 3.472 0 0 1 60.96 11.024 Q 60.128 10.544 59.672 9.656 A 3.999 3.999 0 0 1 59.303 8.548 A 5.579 5.579 0 0 1 59.216 7.536 A 5.472 5.472 0 0 1 59.315 6.473 A 4.103 4.103 0 0 1 59.672 5.416 Q 60.128 4.512 60.936 4.008 A 3.336 3.336 0 0 1 62.413 3.522 A 4.154 4.154 0 0 1 62.8 3.504 Q 63.552 3.504 64.136 3.76 Q 64.72 4.016 65.128 4.496 A 3.101 3.101 0 0 1 65.597 5.252 A 3.878 3.878 0 0 1 65.752 5.664 A 4.595 4.595 0 0 1 65.927 6.494 A 6.061 6.061 0 0 1 65.968 7.216 A 0.786 0.786 0 0 1 65.96 7.33 Q 65.942 7.455 65.88 7.528 A 0.28 0.28 0 0 1 65.736 7.617 Q 65.689 7.63 65.633 7.632 A 0.575 0.575 0 0 1 65.616 7.632 Z M 16.016 6.976 L 16.672 6.976 L 16.672 7.568 L 16.048 7.568 Q 14.464 7.568 13.592 7.704 Q 12.72 7.84 12.376 8.184 A 1.124 1.124 0 0 0 12.086 8.703 Q 12.032 8.906 12.032 9.152 A 1.791 1.791 0 0 0 12.14 9.786 A 1.589 1.589 0 0 0 12.568 10.408 A 1.802 1.802 0 0 0 13.361 10.822 Q 13.639 10.891 13.966 10.896 A 3.353 3.353 0 0 0 14.016 10.896 A 2.543 2.543 0 0 0 14.726 10.8 A 2.143 2.143 0 0 0 15.304 10.536 Q 15.856 10.176 16.176 9.56 A 2.847 2.847 0 0 0 16.475 8.553 A 3.55 3.55 0 0 0 16.496 8.16 L 16.496 6.336 A 4.693 4.693 0 0 0 16.461 5.737 Q 16.377 5.086 16.093 4.713 A 1.315 1.315 0 0 0 16.048 4.656 A 1.371 1.371 0 0 0 15.444 4.253 Q 15.215 4.172 14.931 4.143 A 3.239 3.239 0 0 0 14.608 4.128 Q 13.968 4.128 13.384 4.304 A 5.14 5.14 0 0 0 12.748 4.545 A 6.858 6.858 0 0 0 12.16 4.848 A 0.692 0.692 0 0 1 12.088 4.883 Q 12.011 4.915 11.948 4.915 A 0.235 0.235 0 0 1 11.912 4.912 A 0.3 0.3 0 0 1 11.819 4.883 A 0.259 0.259 0 0 1 11.744 4.824 A 0.379 0.379 0 0 1 11.667 4.689 A 0.464 0.464 0 0 1 11.656 4.648 A 0.343 0.343 0 0 1 11.647 4.576 Q 11.646 4.51 11.672 4.448 A 0.296 0.296 0 0 1 11.748 4.343 A 0.428 0.428 0 0 1 11.823 4.288 Q 12.48 3.888 13.184 3.696 A 5.308 5.308 0 0 1 14.468 3.505 A 4.945 4.945 0 0 1 14.576 3.504 Q 15.282 3.504 15.792 3.7 A 2.201 2.201 0 0 1 16.032 3.808 A 1.888 1.888 0 0 1 16.887 4.734 A 2.248 2.248 0 0 1 16.888 4.736 Q 17.106 5.221 17.154 5.919 A 6.026 6.026 0 0 1 17.168 6.336 L 17.168 11.12 Q 17.168 11.257 17.11 11.347 A 0.306 0.306 0 0 1 17.088 11.376 Q 17.012 11.468 16.862 11.472 A 0.515 0.515 0 0 1 16.848 11.472 Q 16.688 11.472 16.6 11.376 A 0.325 0.325 0 0 1 16.523 11.224 A 0.477 0.477 0 0 1 16.512 11.12 L 16.512 9.44 L 16.688 9.44 Q 16.528 10.08 16.144 10.544 Q 15.76 11.008 15.208 11.256 Q 14.656 11.504 13.968 11.504 A 3.21 3.21 0 0 1 13.126 11.397 A 2.779 2.779 0 0 1 12.608 11.2 Q 12 10.896 11.648 10.376 Q 11.296 9.856 11.296 9.216 A 2.84 2.84 0 0 1 11.344 8.678 Q 11.404 8.364 11.542 8.118 A 1.508 1.508 0 0 1 11.72 7.864 A 1.594 1.594 0 0 1 12.134 7.533 Q 12.539 7.299 13.176 7.176 Q 14.208 6.976 16.016 6.976 Z M 37.312 11.12 L 37.312 3.888 A 0.561 0.561 0 0 1 37.32 3.789 Q 37.339 3.685 37.4 3.624 A 0.287 0.287 0 0 1 37.532 3.55 Q 37.578 3.538 37.632 3.536 A 0.563 0.563 0 0 1 37.648 3.536 A 0.462 0.462 0 0 1 37.74 3.545 Q 37.794 3.556 37.835 3.58 A 0.238 0.238 0 0 1 37.888 3.624 A 0.276 0.276 0 0 1 37.944 3.722 Q 37.958 3.763 37.964 3.814 A 0.655 0.655 0 0 1 37.968 3.888 L 37.968 5.52 L 37.792 5.52 A 3.115 3.115 0 0 1 38.161 4.734 A 2.493 2.493 0 0 1 38.896 4.008 A 3.185 3.185 0 0 1 40.39 3.516 A 3.947 3.947 0 0 1 40.704 3.504 Q 41.451 3.504 41.995 3.711 A 2.392 2.392 0 0 1 42.248 3.824 Q 42.864 4.144 43.168 4.8 Q 43.419 5.341 43.463 6.11 A 5.92 5.92 0 0 1 43.472 6.448 L 43.472 11.12 Q 43.472 11.28 43.384 11.376 Q 43.296 11.472 43.136 11.472 Q 42.976 11.472 42.888 11.376 A 0.325 0.325 0 0 1 42.811 11.224 A 0.477 0.477 0 0 1 42.8 11.12 L 42.8 6.512 Q 42.8 5.312 42.329 4.734 A 1.451 1.451 0 0 0 42.304 4.704 Q 41.808 4.128 40.704 4.128 A 3.236 3.236 0 0 0 39.824 4.242 A 2.427 2.427 0 0 0 38.728 4.888 A 2.545 2.545 0 0 0 38.053 6.196 A 3.691 3.691 0 0 0 37.984 6.928 L 37.984 11.12 A 0.533 0.533 0 0 1 37.968 11.257 Q 37.911 11.472 37.648 11.472 Q 37.488 11.472 37.4 11.376 A 0.325 0.325 0 0 1 37.323 11.224 A 0.477 0.477 0 0 1 37.312 11.12 Z M 25.728 5.648 L 25.552 5.648 L 25.552 0.352 A 0.561 0.561 0 0 1 25.56 0.253 Q 25.579 0.149 25.64 0.088 A 0.287 0.287 0 0 1 25.772 0.014 Q 25.818 0.002 25.872 0 A 0.563 0.563 0 0 1 25.888 0 Q 26.018 0 26.1 0.058 A 0.27 0.27 0 0 1 26.136 0.088 Q 26.209 0.161 26.221 0.294 A 0.619 0.619 0 0 1 26.224 0.352 L 26.224 11.12 Q 26.224 11.28 26.136 11.376 Q 26.048 11.472 25.888 11.472 Q 25.728 11.472 25.64 11.376 A 0.325 0.325 0 0 1 25.563 11.224 A 0.477 0.477 0 0 1 25.552 11.12 L 25.552 9.36 L 25.728 9.36 Q 25.472 10.336 24.688 10.92 Q 23.904 11.504 22.784 11.504 Q 21.744 11.504 20.968 11.016 A 3.14 3.14 0 0 1 19.881 9.847 A 3.86 3.86 0 0 1 19.768 9.624 A 4.35 4.35 0 0 1 19.425 8.508 A 5.929 5.929 0 0 1 19.344 7.504 Q 19.344 6.272 19.76 5.376 A 3.335 3.335 0 0 1 20.391 4.446 A 3.028 3.028 0 0 1 20.952 3.992 A 3.162 3.162 0 0 1 22.208 3.543 A 4.107 4.107 0 0 1 22.784 3.504 A 3.622 3.622 0 0 1 23.73 3.622 A 2.86 2.86 0 0 1 24.688 4.08 A 2.719 2.719 0 0 1 25.72 5.617 A 3.393 3.393 0 0 1 25.728 5.648 Z M 1.648 8.88 L 1.648 4.208 L 0.352 4.208 Q 0.215 4.208 0.125 4.15 A 0.306 0.306 0 0 1 0.096 4.128 A 0.255 0.255 0 0 1 0.001 3.944 A 0.324 0.324 0 0 1 0 3.92 A 0.277 0.277 0 0 1 0.021 3.811 A 0.261 0.261 0 0 1 0.096 3.712 A 0.331 0.331 0 0 1 0.228 3.646 Q 0.278 3.634 0.335 3.632 A 0.62 0.62 0 0 1 0.352 3.632 L 1.648 3.632 L 1.648 1.472 A 0.561 0.561 0 0 1 1.656 1.373 Q 1.675 1.269 1.736 1.208 A 0.287 0.287 0 0 1 1.868 1.134 Q 1.914 1.122 1.968 1.12 A 0.563 0.563 0 0 1 1.984 1.12 Q 2.114 1.12 2.196 1.178 A 0.27 0.27 0 0 1 2.232 1.208 Q 2.305 1.281 2.317 1.414 A 0.619 0.619 0 0 1 2.32 1.472 L 2.32 3.632 L 4.608 3.632 A 0.619 0.619 0 0 1 4.705 3.639 Q 4.81 3.656 4.872 3.712 Q 4.96 3.792 4.96 3.92 A 0.303 0.303 0 0 1 4.944 4.021 A 0.259 0.259 0 0 1 4.872 4.128 A 0.276 0.276 0 0 1 4.774 4.184 Q 4.733 4.198 4.682 4.204 A 0.655 0.655 0 0 1 4.608 4.208 L 2.32 4.208 L 2.32 8.736 A 4.169 4.169 0 0 0 2.36 9.337 Q 2.45 9.948 2.736 10.328 A 1.28 1.28 0 0 0 3.356 10.766 Q 3.576 10.843 3.849 10.868 A 3.036 3.036 0 0 0 4.128 10.88 Q 4.368 10.88 4.546 10.843 A 1.161 1.161 0 0 0 4.68 10.808 Q 4.896 10.736 5.04 10.736 A 0.212 0.212 0 0 1 5.185 10.793 A 0.296 0.296 0 0 1 5.208 10.816 A 0.264 0.264 0 0 1 5.265 10.921 Q 5.276 10.96 5.279 11.008 A 0.534 0.534 0 0 1 5.28 11.04 A 0.36 0.36 0 0 1 5.267 11.135 A 0.486 0.486 0 0 1 5.24 11.208 A 0.203 0.203 0 0 1 5.145 11.306 A 0.306 0.306 0 0 1 5.088 11.328 A 1.41 1.41 0 0 1 4.975 11.367 Q 4.855 11.404 4.688 11.437 A 5.135 5.135 0 0 1 4.632 11.448 A 3.321 3.321 0 0 1 4.314 11.493 A 2.6 2.6 0 0 1 4.08 11.504 A 3.399 3.399 0 0 1 3.478 11.454 Q 3.061 11.378 2.736 11.192 Q 2.192 10.88 1.92 10.296 Q 1.648 9.712 1.648 8.88 Z M 54.976 8.88 L 54.976 4.208 L 53.68 4.208 Q 53.543 4.208 53.453 4.15 A 0.306 0.306 0 0 1 53.424 4.128 A 0.255 0.255 0 0 1 53.329 3.944 A 0.324 0.324 0 0 1 53.328 3.92 A 0.277 0.277 0 0 1 53.349 3.811 A 0.261 0.261 0 0 1 53.424 3.712 A 0.331 0.331 0 0 1 53.556 3.646 Q 53.606 3.634 53.663 3.632 A 0.62 0.62 0 0 1 53.68 3.632 L 54.976 3.632 L 54.976 1.472 A 0.561 0.561 0 0 1 54.984 1.373 Q 55.003 1.269 55.064 1.208 A 0.287 0.287 0 0 1 55.196 1.134 Q 55.242 1.122 55.296 1.12 A 0.563 0.563 0 0 1 55.312 1.12 Q 55.442 1.12 55.524 1.178 A 0.27 0.27 0 0 1 55.56 1.208 Q 55.633 1.281 55.645 1.414 A 0.619 0.619 0 0 1 55.648 1.472 L 55.648 3.632 L 57.936 3.632 A 0.619 0.619 0 0 1 58.033 3.639 Q 58.138 3.656 58.2 3.712 Q 58.288 3.792 58.288 3.92 A 0.303 0.303 0 0 1 58.272 4.021 A 0.259 0.259 0 0 1 58.2 4.128 A 0.276 0.276 0 0 1 58.102 4.184 Q 58.061 4.198 58.01 4.204 A 0.655 0.655 0 0 1 57.936 4.208 L 55.648 4.208 L 55.648 8.736 A 4.169 4.169 0 0 0 55.688 9.337 Q 55.778 9.948 56.064 10.328 A 1.28 1.28 0 0 0 56.684 10.766 Q 56.904 10.843 57.177 10.868 A 3.036 3.036 0 0 0 57.456 10.88 Q 57.696 10.88 57.874 10.843 A 1.161 1.161 0 0 0 58.008 10.808 Q 58.224 10.736 58.368 10.736 A 0.212 0.212 0 0 1 58.513 10.793 A 0.296 0.296 0 0 1 58.536 10.816 A 0.264 0.264 0 0 1 58.593 10.921 Q 58.604 10.96 58.607 11.008 A 0.534 0.534 0 0 1 58.608 11.04 A 0.36 0.36 0 0 1 58.595 11.135 A 0.486 0.486 0 0 1 58.568 11.208 A 0.203 0.203 0 0 1 58.473 11.306 A 0.306 0.306 0 0 1 58.416 11.328 A 1.41 1.41 0 0 1 58.303 11.367 Q 58.183 11.404 58.016 11.437 A 5.135 5.135 0 0 1 57.96 11.448 A 3.321 3.321 0 0 1 57.642 11.493 A 2.6 2.6 0 0 1 57.408 11.504 A 3.399 3.399 0 0 1 56.806 11.454 Q 56.389 11.378 56.064 11.192 Q 55.52 10.88 55.248 10.296 Q 54.976 9.712 54.976 8.88 Z M 6.48 11.12 L 6.48 3.888 A 0.561 0.561 0 0 1 6.488 3.789 Q 6.507 3.685 6.568 3.624 A 0.287 0.287 0 0 1 6.7 3.55 Q 6.746 3.538 6.8 3.536 A 0.563 0.563 0 0 1 6.816 3.536 A 0.462 0.462 0 0 1 6.908 3.545 Q 6.962 3.556 7.003 3.58 A 0.238 0.238 0 0 1 7.056 3.624 A 0.276 0.276 0 0 1 7.112 3.722 Q 7.126 3.763 7.132 3.814 A 0.655 0.655 0 0 1 7.136 3.888 L 7.136 5.44 L 6.976 5.44 A 2.833 2.833 0 0 1 7.45 4.537 A 2.589 2.589 0 0 1 8.056 3.984 A 3.107 3.107 0 0 1 9.534 3.485 A 3.873 3.873 0 0 1 9.856 3.472 A 0.622 0.622 0 0 1 9.974 3.483 A 0.454 0.454 0 0 1 10.104 3.528 A 0.185 0.185 0 0 1 10.194 3.641 Q 10.205 3.674 10.207 3.716 A 0.45 0.45 0 0 1 10.208 3.744 A 0.515 0.515 0 0 1 10.199 3.841 Q 10.189 3.898 10.164 3.942 A 0.269 0.269 0 0 1 10.128 3.992 A 0.259 0.259 0 0 1 10.046 4.051 Q 9.971 4.086 9.856 4.096 L 9.664 4.112 Q 8.48 4.224 7.816 4.912 A 2.321 2.321 0 0 0 7.205 6.131 A 3.317 3.317 0 0 0 7.152 6.736 L 7.152 11.12 Q 7.152 11.257 7.094 11.347 A 0.306 0.306 0 0 1 7.072 11.376 Q 7.004 11.457 6.868 11.47 A 0.569 0.569 0 0 1 6.816 11.472 Q 6.656 11.472 6.568 11.376 A 0.325 0.325 0 0 1 6.491 11.224 A 0.477 0.477 0 0 1 6.48 11.12 Z M 48.147 11.388 A 3.779 3.779 0 0 0 49.104 11.504 A 4.121 4.121 0 0 0 49.634 11.471 A 3.244 3.244 0 0 0 50.536 11.224 Q 51.168 10.944 51.624 10.416 A 3.331 3.331 0 0 0 51.936 9.991 A 3.862 3.862 0 0 0 52.32 9.152 Q 52.56 8.416 52.56 7.504 A 5.902 5.902 0 0 0 52.479 6.501 A 4.281 4.281 0 0 0 52.136 5.392 A 3.901 3.901 0 0 0 52.053 5.228 A 3.221 3.221 0 0 0 50.936 4 A 3.037 3.037 0 0 0 50.061 3.62 A 3.779 3.779 0 0 0 49.104 3.504 A 4.101 4.101 0 0 0 48.709 3.523 A 3.356 3.356 0 0 0 47.68 3.784 Q 47.04 4.064 46.584 4.592 A 3.331 3.331 0 0 0 46.272 5.017 A 3.862 3.862 0 0 0 45.888 5.856 Q 45.648 6.592 45.648 7.504 A 5.902 5.902 0 0 0 45.729 8.507 A 4.281 4.281 0 0 0 46.072 9.616 A 3.901 3.901 0 0 0 46.155 9.78 A 3.221 3.221 0 0 0 47.272 11.008 A 3.037 3.037 0 0 0 48.147 11.388 Z M 22.8 10.88 A 3.025 3.025 0 0 0 23.569 10.786 A 2.439 2.439 0 0 0 24.272 10.48 A 2.463 2.463 0 0 0 25.077 9.625 A 3.126 3.126 0 0 0 25.232 9.32 Q 25.568 8.56 25.568 7.504 A 5.541 5.541 0 0 0 25.488 6.531 Q 25.324 5.613 24.824 5.016 A 2.435 2.435 0 0 0 23.093 4.14 A 3.435 3.435 0 0 0 22.8 4.128 A 3.025 3.025 0 0 0 22.031 4.222 A 2.439 2.439 0 0 0 21.328 4.528 Q 20.704 4.928 20.368 5.68 Q 20.032 6.432 20.032 7.504 Q 20.032 9.104 20.784 9.992 A 2.459 2.459 0 0 0 22.568 10.872 A 3.404 3.404 0 0 0 22.8 10.88 Z M 49.104 10.88 A 3.025 3.025 0 0 0 49.873 10.786 A 2.439 2.439 0 0 0 50.576 10.48 A 2.463 2.463 0 0 0 51.381 9.625 A 3.126 3.126 0 0 0 51.536 9.32 Q 51.872 8.56 51.872 7.504 A 5.541 5.541 0 0 0 51.792 6.531 Q 51.628 5.613 51.128 5.016 A 2.435 2.435 0 0 0 49.397 4.14 A 3.435 3.435 0 0 0 49.104 4.128 A 3.025 3.025 0 0 0 48.335 4.222 A 2.439 2.439 0 0 0 47.632 4.528 Q 47.008 4.928 46.672 5.68 Q 46.336 6.432 46.336 7.504 Q 46.336 9.104 47.088 9.992 A 2.459 2.459 0 0 0 48.872 10.872 A 3.404 3.404 0 0 0 49.104 10.88 Z" vector-effect="non-scaling-stroke"/></g>
<defs>
<linearGradient id="paint0_linear_5971_70471" x1="61.2499" y1="2.62459" x2="61.2499" y2="23.6246" gradientUnits="userSpaceOnUse">
<stop offset="0.239531"/>
<stop offset="1" stop-opacity="0.8"/>
</linearGradient>
<linearGradient id="paint1_linear_5971_70471" x1="61.2499" y1="2.62459" x2="61.2499" y2="23.6246" gradientUnits="userSpaceOnUse">
<stop offset="0.239531"/>
<stop offset="1" stop-opacity="0.8"/>
</linearGradient>
<linearGradient id="paint2_linear_5971_70471" x1="61.2499" y1="2.62459" x2="61.2499" y2="23.6246" gradientUnits="userSpaceOnUse">
<stop offset="0.239531"/>
<stop offset="1" stop-opacity="0.8"/>
</linearGradient>
<linearGradient id="paint3_linear_5971_70471" x1="61.2499" y1="2.62459" x2="61.2499" y2="23.6246" gradientUnits="userSpaceOnUse">
<stop offset="0.239531"/>
<stop offset="1" stop-opacity="0.8"/>
</linearGradient>
<linearGradient id="paint4_linear_5971_70471" x1="61.2499" y1="2.62459" x2="61.2499" y2="23.6246" gradientUnits="userSpaceOnUse">
<stop offset="0.239531"/>
<stop offset="1" stop-opacity="0.8"/>
</linearGradient>
<linearGradient id="paint5_linear_5971_70471" x1="61.2499" y1="2.62459" x2="61.2499" y2="23.6246" gradientUnits="userSpaceOnUse">
<stop offset="0.239531"/>
<stop offset="1" stop-opacity="0.8"/>
</linearGradient>
<linearGradient id="paint6_linear_5971_70471" x1="61.2499" y1="2.62459" x2="61.2499" y2="23.6246" gradientUnits="userSpaceOnUse">
<stop offset="0.239531"/>
<stop offset="1" stop-opacity="0.8"/>
</linearGradient>
<linearGradient id="paint7_linear_5971_70471" x1="61.2499" y1="2.62459" x2="61.2499" y2="23.6246" gradientUnits="userSpaceOnUse">
<stop offset="0.239531"/>
<stop offset="1" stop-opacity="0.8"/>
</linearGradient>
</defs>
</svg>
